<svg xmlns="http://www.w3.org/2000/svg" xmlns:xlink="http://www.w3.org/1999/xlink" width="64" height="64" viewBox="0 0 64 64">
  <defs>
    <clipPath id="clip-path">
      <rect id="Retângulo_92" data-name="Retângulo 92" width="64" height="49.543" fill="#472e92"/>
    </clipPath>
    <clipPath id="clip-icon_bars_02">
      <rect width="64" height="64"/>
    </clipPath>
  </defs>
  <g id="icon_bars_02" clip-path="url(#clip-icon_bars_02)">
    <g id="Grupo_356" data-name="Grupo 356" transform="translate(0 14.001)">
      <g id="Grupo_135" data-name="Grupo 135" transform="translate(0 -0.001)" clip-path="url(#clip-path)">
        <path id="Caminho_39" data-name="Caminho 39" d="M32.177,24.781q0,9.242,0,18.484a5.956,5.956,0,0,1-4.445,6.047,4.907,4.907,0,0,1-1.2.194c-1.846.022-3.694.068-5.537,0a5.983,5.983,0,0,1-5.651-6.183c-.025-3-.006-5.992-.006-8.988q0-13.985,0-27.973A6,6,0,0,1,19.664.28,4.207,4.207,0,0,1,20.786.055c1.99-.022,3.987-.123,5.968.018a5.9,5.9,0,0,1,5.42,6.155c.018,5.008,0,10.019.006,15.03q0,1.763,0,3.522m-12.7-.04V42.652a9.962,9.962,0,0,0,.018,1.006,1.8,1.8,0,0,0,1.806,1.7q2.482.042,4.965,0A1.743,1.743,0,0,0,28,43.83a5.024,5.024,0,0,0,.055-.861q0-18.2,0-36.4c0-.12,0-.24,0-.36A1.875,1.875,0,0,0,25.976,4.18c-1.32-.009-2.639,0-3.956,0-1.95,0-2.541.584-2.541,2.51V24.741" transform="translate(31.817 0.002)" fill="#fff"/>
        <path id="Caminho_40" data-name="Caminho 40" d="M7.668,22.311q0-5.648,0-11.3c.006-4.033,2.482-6.521,6.5-6.506a43.52,43.52,0,0,1,5.454.148,5.755,5.755,0,0,1,4.851,5.315c.025.311.043.621.043.932q0,11.443.006,22.883a6.014,6.014,0,0,1-3.085,5.62,3.987,3.987,0,0,1-1.738.624,51.54,51.54,0,0,1-7.029.006,5.669,5.669,0,0,1-4.968-5.5c-.043-.668-.031-1.341-.031-2.015q0-5.108,0-10.216m12.71.04V11.2c0-1.984-.569-2.547-2.578-2.547-1.317,0-2.636-.009-3.953,0a1.847,1.847,0,0,0-2.039,2q-.023,11.687,0,23.372a1.847,1.847,0,0,0,2.027,2.006c1.415.012,2.83.006,4.245,0,1.636,0,2.295-.667,2.3-2.322q0-5.68,0-11.363" transform="translate(15.913 9.337)" fill="#472e92"/>
        <path id="Caminho_41" data-name="Caminho 41" d="M0,19.932c0-1.581-.012-3.162,0-4.743a5.975,5.975,0,0,1,6.217-6.2c1.486-.006,2.968-.009,4.454,0a5.952,5.952,0,0,1,6.152,5.974q.111,4.955,0,9.917a5.935,5.935,0,0,1-6.146,5.974A45.673,45.673,0,0,1,4.877,30.7,5.7,5.7,0,0,1,.038,25.251C-.027,23.479.026,21.7.026,19.932H0M12.7,20c0-1.581.009-3.162,0-4.746a1.878,1.878,0,0,0-2.07-2.107c-1.486-.009-2.971-.012-4.457,0a1.841,1.841,0,0,0-2.036,2q-.037,4.78,0,9.563a1.843,1.843,0,0,0,2.033,2q2.229.018,4.457,0A1.876,1.876,0,0,0,12.7,24.6c.012-1.535,0-3.067,0-4.6" transform="translate(-0.001 18.661)" fill="#472e92"/>
      </g>
    </g>
  </g>
</svg>
