<?xml version="1.0" encoding="utf-8"?>
<!-- Generator: Adobe Illustrator 27.7.0, SVG Export Plug-In . SVG Version: 6.00 Build 0)  -->
<svg version="1.1" id="Camada_1" xmlns="http://www.w3.org/2000/svg" xmlns:xlink="http://www.w3.org/1999/xlink" x="0px" y="0px"
	 viewBox="0 0 64 64" style="enable-background:new 0 0 64 64;" xml:space="preserve">
<style type="text/css">
	.st0{fill:#472E92;}
	.st1{fill:#9ADD30;}
</style>
<g id="Grupo_142" transform="translate(0 0)">
	<g>
		<g id="Grupo_141" transform="translate(0 0.001)">
			<path id="Caminho_53" class="st0" d="M30.1,3.5c0-0.4,0-1,0-1.5C30.1,0.9,30.9,0,32,0c1.1,0,1.9,0.9,1.9,1.9c0,0.5,0,1.1,0,1.5
				c15.4,2.3,24.2,11.2,26.6,26.6c0.4,0,1,0,1.5,0c1.1,0,1.9,0.8,1.9,1.9s-0.8,1.9-1.9,1.9c0,0,0,0-0.1,0c-0.5,0-1.1,0-1.5,0
				c-2.4,15.4-11.1,24.2-26.6,26.6c0,0.3,0,0.9,0,1.4c0.1,1.1-0.7,2-1.7,2.1c-1.1,0.1-2-0.7-2.1-1.7c0-0.1,0-0.2,0-0.4
				c0-0.5,0-1,0-1.4C14.7,58.1,5.9,49.3,3.5,33.9c-0.4,0-0.9,0-1.4,0C1,34,0,33.2-0.1,32.2c-0.1-1.1,0.7-2,1.7-2.1
				c0.1,0,0.3,0,0.4,0c0.5,0,1.1,0,1.5,0C5.8,14.7,14.6,5.9,30.1,3.5 M7.5,33.9c1,12,10.5,21.6,22.6,22.5c0-0.6,0-1,0-1.5
				c0-1.1,0.8-2,1.9-2s2,0.8,2,1.9c0,0.1,0,0.1,0,0.2c0,0.5,0,0.9,0,1.4c11.7-0.6,21.9-10.7,22.5-22.5c-0.4,0-0.8,0-1.3,0
				c-1.1,0.1-2-0.6-2.2-1.7c-0.1-1.1,0.6-2,1.7-2.2c0.2,0,0.3,0,0.5,0c0.4,0,0.8,0,1.3,0c-0.7-12.2-11.3-22-22.5-22.5
				c0,0.4,0,0.9,0,1.3c0.1,1.1-0.7,2-1.8,2.1c-1.1,0.1-2-0.7-2.1-1.8c0-0.1,0-0.2,0-0.3c0-0.5,0-0.9,0-1.4C17.7,8.3,8,19.1,7.6,30.1
				c0.5,0,1,0,1.5,0c1.1,0,1.9,0.9,1.9,1.9c0,1.1-0.9,1.9-1.9,1.9l0,0C8.6,33.9,8.1,33.9,7.5,33.9"/>
			<path id="Caminho_54" class="st1" d="M33.9,27.9c0,0.5,0,1,0,1.5c0,0.5,0.1,0.6,0.6,0.6c1.1,0,2.2,0,3.3,0c0.9,0,1.7,0.7,1.7,1.7
				c0.1,0.9-0.4,1.8-1.3,2c-0.3,0.1-0.6,0.1-0.9,0.1c-0.9,0-1.9,0-2.8,0c-0.5,0-0.6,0.1-0.6,0.6c0,1,0,2,0,3c0.1,1.1-0.7,2-1.8,2.1
				c-1.1,0.1-2-0.7-2.1-1.8c0-0.1,0-0.2,0-0.3c0-1,0-2,0-3c0-0.5-0.1-0.6-0.6-0.6c-1,0-2,0-2.9,0c-1.1,0.1-2-0.7-2.1-1.8
				c-0.1-1.1,0.7-2,1.8-2.1c0.1,0,0.2,0,0.3,0c1,0,2,0,3,0c0.5,0,0.6-0.1,0.6-0.6c0-1,0-2,0-3c-0.1-1.1,0.7-2,1.8-2.1s2,0.7,2.1,1.8
				c0,0.1,0,0.2,0,0.3C33.9,27,33.9,27.5,33.9,27.9"/>
		</g>
	</g>
</g>
</svg>
