<?xml version="1.0" encoding="utf-8"?>
<!-- Generator: Adobe Illustrator 27.7.0, SVG Export Plug-In . SVG Version: 6.00 Build 0)  -->
<svg version="1.1" id="Camada_1" xmlns="http://www.w3.org/2000/svg" xmlns:xlink="http://www.w3.org/1999/xlink" x="0px" y="0px"
	 viewBox="0 0 64 49.5" style="enable-background:new 0 0 64 49.5;" xml:space="preserve">
<style type="text/css">
	.st0{fill:#9ADD30;}
	.st1{fill:#472E92;}
</style>
<g id="Grupo_136" transform="translate(0 0)">
	<g>
		<g id="Grupo_135" transform="translate(0 -0.001)">
			<path id="Caminho_39" class="st0" d="M64,24.8c0,6.2,0,12.3,0,18.5c0.1,2.8-1.7,5.3-4.4,6c-0.4,0.1-0.8,0.2-1.2,0.2
				c-1.8,0-3.7,0.1-5.5,0c-3.3-0.2-5.8-2.9-5.7-6.2c0-3,0-6,0-9c0-9.3,0-18.6,0-28c-0.1-2.8,1.6-5.3,4.3-6.1
				c0.4-0.1,0.7-0.2,1.1-0.2c2,0,4-0.1,6,0c3.2,0.3,5.6,3,5.4,6.2c0,5,0,10,0,15C64,22.4,64,23.6,64,24.8 M51.3,24.7v17.9
				c0,0.3,0,0.7,0,1c0.1,1,0.8,1.7,1.8,1.7c1.7,0,3.3,0,5,0c0.9,0,1.6-0.7,1.7-1.5c0-0.3,0.1-0.6,0.1-0.9c0-12.1,0-24.3,0-36.4
				c0-0.1,0-0.2,0-0.4c0.1-1-0.7-1.9-1.7-2c-0.1,0-0.3,0-0.4,0c-1.3,0-2.6,0-4,0c-1.9,0-2.5,0.6-2.5,2.5L51.3,24.7"/>
			<path id="Caminho_40" class="st1" d="M23.6,31.6c0-3.8,0-7.5,0-11.3c0-4,2.5-6.5,6.5-6.5c1.8-0.1,3.6,0,5.5,0.1
				c2.7,0.4,4.7,2.6,4.9,5.3c0,0.3,0,0.6,0,0.9c0,7.6,0,15.3,0,22.9c0.1,2.3-1.1,4.5-3.1,5.6c-0.5,0.3-1.1,0.6-1.7,0.6
				c-2.3,0.2-4.7,0.2-7,0c-2.8-0.3-4.9-2.7-5-5.5c0-0.7,0-1.3,0-2C23.6,38.4,23.6,35,23.6,31.6 M36.3,31.7V20.5c0-2-0.6-2.5-2.6-2.5
				c-1.3,0-2.6,0-4,0c-1-0.1-1.9,0.6-2,1.6c0,0.1,0,0.2,0,0.4c0,7.8,0,15.6,0,23.4c-0.1,1,0.7,1.9,1.7,2c0.1,0,0.2,0,0.4,0
				c1.4,0,2.8,0,4.2,0c1.6,0,2.3-0.7,2.3-2.3C36.3,39.3,36.3,35.5,36.3,31.7"/>
			<path id="Caminho_41" class="st1" d="M0,38.6c0-1.6,0-3.2,0-4.7c-0.1-3.3,2.4-6.1,5.7-6.2c0.2,0,0.3,0,0.5,0c1.5,0,3,0,4.5,0
				c3.3-0.1,6,2.5,6.1,5.7c0,0.1,0,0.2,0,0.2c0.1,3.3,0.1,6.6,0,9.9c0,3.3-2.6,6-5.9,6c-0.1,0-0.2,0-0.3,0c-1.9,0.1-3.9,0-5.8-0.2
				c-2.7-0.4-4.7-2.7-4.8-5.4C0,42.1,0,40.4,0,38.6L0,38.6 M12.7,38.7c0-1.6,0-3.2,0-4.7c0.1-1-0.6-2-1.6-2.1c-0.1,0-0.3,0-0.4,0
				c-1.5,0-3,0-4.5,0c-1-0.1-1.9,0.6-2,1.6c0,0.1,0,0.2,0,0.4c0,3.2,0,6.4,0,9.6c-0.1,1,0.7,1.9,1.7,2c0.1,0,0.2,0,0.4,0
				c1.5,0,3,0,4.5,0c1,0.1,2-0.6,2.1-1.7c0-0.2,0-0.3,0-0.5C12.7,41.7,12.7,40.2,12.7,38.7"/>
		</g>
	</g>
</g>
</svg>
