<?xml version="1.0" encoding="utf-8"?>
<!-- Generator: Adobe Illustrator 27.7.0, SVG Export Plug-In . SVG Version: 6.00 Build 0)  -->
<svg version="1.1" id="Camada_1" xmlns="http://www.w3.org/2000/svg" xmlns:xlink="http://www.w3.org/1999/xlink" x="0px" y="0px"
	 viewBox="0 0 58.5 64" style="enable-background:new 0 0 58.5 64;" xml:space="preserve">
<style type="text/css">
	.st0{fill:#472E92;}
	.st1{fill:#FFFFFF;}
</style>
<g id="Grupo_140" transform="translate(0 0)">
	<g>
		<g id="Grupo_139" transform="translate(0 0)">
			<path id="Caminho_48" class="st0" d="M28.7,59.9c13.6,0,24.6-11,24.6-24.6c0-1.9-0.2-3.8-0.7-5.7c-0.4-1.5,0.2-2.6,1.4-2.9
				c1.2-0.3,2.3,0.5,2.6,2c1.9,8.7,0.4,16.8-5.1,23.9c-6.9,8.9-16.2,12.7-27.4,11.1C8.6,61.2-2.1,46.4,0.3,30.7
				c1.6-10,8.3-18.4,17.6-22.1c3.1-1.3,6.4-1.9,9.7-2c1.2-0.1,2.2,0.7,2.4,1.8c0,0.1,0,0.1,0,0.2c0,1.2-1,2.1-2.2,2.1
				c0,0-0.1,0-0.1,0C16.5,11,6.9,19.1,4.7,30.1c-2.8,13.3,5.7,26.4,19,29.2C25.4,59.7,27,59.9,28.7,59.9"/>
			<path id="Caminho_49" class="st1" d="M46,24.9c-6.9,0-12.4-5.6-12.4-12.5C33.6,5.5,39.2,0,46.1,0c6.9,0,12.4,5.6,12.4,12.5
				c0,0,0,0,0,0C58.4,19.3,52.8,24.9,46,24.9 M54.3,12.5c0-4.6-3.7-8.3-8.3-8.3c-4.5,0-8.2,3.6-8.3,8.2c-0.1,4.5,3.6,8.2,8.1,8.3
				c0.1,0,0.1,0,0.2,0c4.5,0.1,8.2-3.4,8.3-7.9C54.3,12.6,54.3,12.6,54.3,12.5"/>
			<path id="Caminho_50" class="st0" d="M30.8,47c0,0.6,0,1.2,0,1.8c0,1.1-0.8,2.1-2,2.2c-1.1,0-2.1-0.8-2.2-2c0,0,0-0.1,0-0.1
				c0-0.4,0-0.8,0-1.3c-0.5,0-1-0.1-1.5-0.1c-2.2-0.4-3.8-2.2-4-4.4c-0.2-1.2,0.6-2.2,1.8-2.4c0,0,0,0,0,0c1.1-0.1,2.2,0.6,2.3,1.8
				c0,0.1,0,0.1,0,0.2c0.1,0.5,0.3,0.9,0.9,0.8c1.6-0.2,3.2-0.5,4.7-0.8c0.3-0.1,0.6-0.2,0.9-0.4c1.4-0.8,2.2-2.6-0.1-3.7
				c-1.3-0.5-2.6-1-3.9-1.3c-1.7-0.4-3.2-1-4.7-1.9c-2.8-1.6-3.8-5.2-2.1-8.1c0.5-0.8,1.1-1.5,1.9-2c1-0.6,2.1-1.1,3.2-1.5
				c0.5-0.2,0.7-0.4,0.6-0.9c0-0.4,0-0.8,0-1.2c0-1.1,0.9-2.1,2.1-2.1s2.1,0.9,2.1,2.1c0,0,0,0.1,0,0.1c0,0.4,0,0.8,0,1.2
				c0.5,0.1,1,0.1,1.5,0.2c2.2,0.4,3.8,2.4,3.9,4.6c0.1,1.1-0.8,2.1-1.9,2.2c-1.1,0.1-2.1-0.7-2.2-1.8c-0.2-0.9-0.3-1.1-1.2-1
				c-1.5,0.2-3,0.5-4.5,0.8c-0.7,0.2-1.2,0.6-1.7,1.2c-0.6,0.6-0.7,1.6-0.1,2.2c0.1,0.2,0.3,0.3,0.5,0.4c1,0.5,2,1,3.1,1.3
				c1.7,0.6,3.4,1,5,1.7c1.8,0.7,3.3,2.2,3.8,4c0.7,2.5-0.3,5.1-2.5,6.5c-0.9,0.6-1.9,1.1-2.9,1.5C31.4,46.8,31.1,46.9,30.8,47"/>
			<path id="Caminho_51" class="st0" d="M44.9,11.7c-0.2-0.2-0.4-0.4-0.5-0.6c-0.7-0.9-2-1.1-2.9-0.4c-0.9,0.7-1.1,2-0.4,2.9
				c0,0,0.1,0.1,0.1,0.1c0.6,0.7,1.1,1.5,1.7,2.2c0.6,0.9,1.9,1.2,2.8,0.5c0.1-0.1,0.2-0.1,0.2-0.2c1.5-1.2,3-2.4,4.5-3.7
				c1-0.6,1.2-1.9,0.6-2.9c0-0.1-0.1-0.1-0.1-0.2c-0.8-0.9-2.1-1-3-0.3c0,0-0.1,0.1-0.1,0.1C46.9,10.1,46,10.9,44.9,11.7"/>
			<path id="Caminho_52" class="st1" d="M44.9,11.7c1-0.8,2-1.6,2.9-2.4c0.8-0.8,2.2-0.8,3,0.1c0,0,0.1,0.1,0.1,0.1
				c0.7,0.9,0.6,2.2-0.3,2.9c-0.1,0-0.1,0.1-0.2,0.1c-1.5,1.2-3,2.5-4.5,3.7c-0.8,0.8-2.1,0.7-2.9-0.1C43,16,43,15.9,42.9,15.9
				c-0.6-0.7-1.2-1.5-1.7-2.2c-0.8-0.9-0.7-2.2,0.2-2.9c0,0,0.1-0.1,0.1-0.1c0.9-0.7,2.2-0.5,2.9,0.4C44.6,11.3,44.7,11.5,44.9,11.7
				"/>
		</g>
	</g>
</g>
</svg>
