<?xml version="1.0" encoding="utf-8"?>
<!-- Generator: Adobe Illustrator 27.7.0, SVG Export Plug-In . SVG Version: 6.00 Build 0)  -->
<svg version="1.1" id="Camada_1" xmlns="http://www.w3.org/2000/svg" xmlns:xlink="http://www.w3.org/1999/xlink" x="0px" y="0px"
	 viewBox="0 0 57.4 64" style="enable-background:new 0 0 57.4 64;" xml:space="preserve">
<style type="text/css">
	.st0{fill:#472E92;}
	.st1{fill:#FFFFFF;}
</style>
<g id="Grupo_138" transform="translate(0 0)">
	<g>
		<g>
			<g id="Grupo_137" transform="translate(0 0.001)">
				<path id="Caminho_42" class="st0" d="M0,32c0-7.7,0-15.4,0-23.1c-0.1-4.3,3-8.1,7.3-8.8C7.8,0,8.3,0,8.7,0C17.9,0,27,0,36.2,0
					c4.3-0.1,8,3.1,8.6,7.3c0.2,1.5,0.2,3,0.1,4.5c-0.1,1-1,1.8-2,1.8c-1.1,0-1.9-0.8-2-1.8c-0.1-0.9,0-1.8,0-2.7
					c0.1-2.6-1.8-4.8-4.4-5c-0.2,0-0.4,0-0.5,0c-0.6,0-1.2,0-1.8,0C33,4,32,4.9,31.9,6c-0.1,0.7-0.3,1.4-0.5,2
					c-0.8,2.5-3.1,4.1-5.6,4.1c-2.1,0-4.3,0-6.4,0c-3,0-5.6-2.1-6.1-5.1c-0.1-0.5-0.2-0.9-0.3-1.4c-0.1-0.8-0.9-1.5-1.7-1.5
					c-1.1,0-2.3,0-3.4,0.2C6,4.6,4.5,6.1,4.2,8c0,0.4-0.1,0.7-0.1,1.1c0,15.2,0,30.5,0,45.7C3.9,57,5.4,59,7.5,59.6
					c0.5,0.1,1.1,0.2,1.6,0.2c8.9,0,17.7,0,26.6,0c2.6,0.2,4.9-1.7,5.1-4.3c0-0.3,0-0.5,0-0.8c0-0.8,0-1.6,0-2.4
					c0-1.1,0.9-2.1,2-2.1l0,0c1.1,0,2,0.9,2.1,2v0.1c0,2,0.2,4-0.6,6c-1.2,3.3-4.3,5.5-7.8,5.6c-3.1,0.2-6.1,0-9.2,0
					c-6.2,0-12.3,0-18.5,0c-4.4,0.1-8.1-3-8.8-7.3c0-0.6,0-1.2,0-1.9C0,47.1,0,39.6,0,32 M16.9,4.2c0.2,0.9,0.3,1.6,0.5,2.4
					S18.3,8,19.2,8c2.2,0,4.4,0,6.6,0c0.8,0,1.4-0.5,1.6-1.2C27.6,5.9,27.9,5,28,4.1L16.9,4.2L16.9,4.2z"/>
				<path id="Caminho_43" class="st1" d="M43,18.7c2.9,0,5.8,0,8.6,0c3-0.1,5.6,2.2,5.7,5.2c0,0.2,0,0.3,0,0.5c0,4,0,8,0,12
					c0.1,3-2.3,5.6-5.3,5.7c-0.2,0-0.3,0-0.5,0c-1.2,0-2.4,0-3.7,0c-0.3,0-0.6,0.1-0.9,0.4c-0.6,0.6-1.2,1.2-1.8,1.8
					c-1.3,1.3-3.3,1.3-4.6,0l0,0c-0.6-0.6-1.2-1.2-1.8-1.8c-0.3-0.2-0.6-0.4-1-0.4c-1.2,0-2.4,0-3.7,0c-3,0.1-5.5-2.3-5.6-5.3
					c0-0.1,0-0.2,0-0.3c0-4.1,0-8.1,0-12.2c0-3,2.4-5.5,5.4-5.5c0.1,0,0.2,0,0.3,0C37.1,18.7,40,18.7,43,18.7 M42.9,40.7
					c0.6-0.7,1.3-1.2,1.8-1.9c0.5-0.6,1.3-0.9,2.2-0.9c1.5,0,3,0,4.5,0c1.2,0,1.8-0.5,1.8-1.7c0-3.9,0-7.7,0-11.6
					c0-1.3-0.5-1.8-1.8-1.8c-5.7,0-11.4,0-17,0c-1.3,0-1.8,0.5-1.8,1.8c0,3.8,0,7.7,0,11.5c0,1.3,0.5,1.8,1.8,1.8c1.4,0,2.9,0,4.3,0
					c0.9-0.1,1.8,0.3,2.4,1C41.7,39.6,42.3,40.1,42.9,40.7"/>
				<path id="Caminho_44" class="st0" d="M22.5,55.4c-0.3,0-0.6,0-0.9,0c-1.1,0-2-0.9-2-2s0.8-2,1.9-2.1c0.7-0.1,1.4-0.1,2.1,0
					c1.1,0.1,2,1,1.9,2.1c0,1.1-0.9,2-2,2C23.1,55.4,22.8,55.4,22.5,55.4"/>
				<path id="Caminho_45" class="st1" d="M42.9,29.1c0.7,0,1.3,0.6,1.3,1.3c0,0.7-0.6,1.3-1.3,1.3s-1.3-0.6-1.3-1.3l0,0
					C41.6,29.7,42.2,29.1,42.9,29.1L42.9,29.1"/>
				<path id="Caminho_46" class="st1" d="M37.9,31.7c-0.7,0-1.3-0.6-1.3-1.4c0-0.7,0.6-1.3,1.4-1.3c0.7,0,1.3,0.6,1.3,1.3
					C39.3,31.1,38.7,31.7,37.9,31.7L37.9,31.7"/>
				<path id="Caminho_47" class="st1" d="M47.9,29.1c0.7,0,1.3,0.6,1.4,1.3c0,0.7-0.6,1.3-1.3,1.4c0,0,0,0-0.1,0
					c-0.7,0-1.3-0.6-1.4-1.3C46.5,29.7,47.1,29.1,47.9,29.1L47.9,29.1"/>
			</g>
		</g>
	</g>
</g>
</svg>
