<svg id="Grupo_151" data-name="Grupo 151" xmlns="http://www.w3.org/2000/svg" xmlns:xlink="http://www.w3.org/1999/xlink" width="31.995" height="32" viewBox="0 0 31.995 32">
  <defs>
    <clipPath id="clip-path">
      <rect id="Retângulo_99" data-name="Retângulo 99" width="31.995" height="32" fill="#9add30"/>
    </clipPath>
  </defs>
  <g id="Grupo_150" data-name="Grupo 150" clip-path="url(#clip-path)">
    <path id="Caminho_67" data-name="Caminho 67" d="M32,15.064v1.875a2.136,2.136,0,0,0-.053.27,15.055,15.055,0,0,1-1.826,6.3,15.783,15.783,0,0,1-11.33,8.238c-.61.117-1.232.17-1.849.253H15.063a1.7,1.7,0,0,0-.241-.051,14.807,14.807,0,0,1-6.3-1.819A15.706,15.706,0,0,1,.03,16.669,14.654,14.654,0,0,1,1.887,8.5,15.682,15.682,0,0,1,15.328.029,14.83,14.83,0,0,1,23.5,1.882a15.761,15.761,0,0,1,8.241,11.334c.117.61.17,1.232.252,1.848M16.293,28.8A12.8,12.8,0,1,0,3.21,16.295,12.826,12.826,0,0,0,16.293,28.8" transform="translate(0 0)" fill="#fff"/>
    <path id="Caminho_68" data-name="Caminho 68" d="M154.919,135.47c0-1.426,0-2.852,0-4.278a3,3,0,0,1,.057-.65,1.056,1.056,0,0,1,1.542-.8,4.447,4.447,0,0,1,.557.279q3.662,2.111,7.32,4.227a4.514,4.514,0,0,1,.5.324,1.087,1.087,0,0,1-.006,1.841,4.387,4.387,0,0,1-.469.308q-3.686,2.132-7.376,4.255a3.206,3.206,0,0,1-.831.336.939.939,0,0,1-1.168-.673,2.936,2.936,0,0,1-.12-.827c-.011-1.447-.005-2.894-.005-4.341" transform="translate(-142.795 -119.487)" fill="#9add30"/>
  </g>
</svg>
