<svg id="Grupo_77" data-name="Grupo 77" xmlns="http://www.w3.org/2000/svg" xmlns:xlink="http://www.w3.org/1999/xlink" width="17.984" height="24" viewBox="0 0 17.984 24">
  <defs>
    <clipPath id="clip-path">
      <rect id="Retângulo_71" data-name="Retângulo 71" width="17.984" height="24" fill="#9add30"/>
    </clipPath>
  </defs>
  <g id="Grupo_75" data-name="Grupo 75" clip-path="url(#clip-path)">
    <path id="Caminho_20" data-name="Caminho 20" d="M5.758,158.829c-.06-.031-.12-.064-.181-.092a.994.994,0,0,1-.57-1.056.949.949,0,0,1,.809-.824,8.715,8.715,0,0,1,.982-.029c.389,0,.778,0,1.183,0V153.8c-.492-.108-.989-.179-1.461-.328a8.859,8.859,0,0,1-6.322-6.8,10.106,10.106,0,0,1-.2-1.764.982.982,0,0,1,.959-1.078.994.994,0,0,1,1.034,1.036,7.131,7.131,0,0,0,.635,2.881,7,7,0,0,0,13.28-1.876c.056-.353.051-.716.079-1.073a1,1,0,0,1,.985-.967.977.977,0,0,1,1,.89,6.518,6.518,0,0,1-.046,1.1,8.99,8.99,0,0,1-6.577,7.684c-.442.121-.9.195-1.356.293v3.012c.087.005.168.014.25.014h1.593a1.034,1.034,0,0,1,1.126.785,1.014,1.014,0,0,1-.713,1.184c-.012.005-.019.022-.028.034Z" transform="translate(0 -134.829)" fill="#9add30"/>
    <path id="Caminho_21" data-name="Caminho 21" d="M73.641,7.495c0,.991.047,1.985-.01,2.972a4.988,4.988,0,0,1-9.9.283,4.84,4.84,0,0,1-.062-.792c-.005-1.639-.011-3.279,0-4.918a4.992,4.992,0,0,1,9.965-.47c.064.971.01,1.95.01,2.926h0m-1.973.033c0-.828.005-1.655,0-2.483a3.281,3.281,0,0,0-.074-.7,3,3,0,0,0-5.92.67q-.007,2.483,0,4.965a3.081,3.081,0,0,0,.073.672,3,3,0,0,0,5.921-.67c0-.82,0-1.64,0-2.459" transform="translate(-59.677 0)" fill="#9add30"/>
  </g>
</svg>
