<svg id="Grupo_148" data-name="Grupo 148" xmlns="http://www.w3.org/2000/svg" xmlns:xlink="http://www.w3.org/1999/xlink" width="64" height="63.977" viewBox="0 0 64 63.977">
  <defs>
    <clipPath id="clip-path">
      <rect id="Retângulo_98" data-name="Retângulo 98" width="64" height="63.977" fill="#19aeef"/>
    </clipPath>
  </defs>
  <g id="Grupo_147" data-name="Grupo 147" clip-path="url(#clip-path)">
    <path id="Caminho_63" data-name="Caminho 63" d="M291.862,6.374c0-1.377,0-2.708,0-4.039a2.142,2.142,0,1,1,4.263.027c.006,1.288.005,2.576.009,3.864a.79.79,0,0,0,.044.162c.262.061.543.113.817.192a4.62,4.62,0,0,1,3.384,4.379q.03,12.492,0,24.984a4.61,4.61,0,0,1-3.635,4.445c-.193.044-.385.093-.618.149,0,1.343,0,2.673,0,4a2.145,2.145,0,1,1-4.263-.028c0-1.309,0-2.618,0-3.964-.229-.058-.436-.116-.646-.164a4.614,4.614,0,0,1-3.606-4.4q-.034-12.525,0-25.05a4.6,4.6,0,0,1,3.668-4.416c.173-.038.344-.083.584-.142" transform="translate(-236.396 0)" fill="#19aeef"/>
    <path id="Caminho_64" data-name="Caminho 64" d="M100.156,78.247c0-1.268,0-2.488,0-3.708,0-1.674.778-2.654,2.115-2.664,1.359-.011,2.15.983,2.15,2.7,0,1.219,0,2.439,0,3.679.316.074.6.126.872.205a4.615,4.615,0,0,1,3.381,4.38q.034,10.359,0,20.719A4.61,4.61,0,0,1,105.036,108c-.193.044-.384.094-.614.151,0,1.3,0,2.586,0,3.872,0,1.526-.848,2.509-2.15,2.5a2.186,2.186,0,0,1-2.115-2.467c0-1.286,0-2.573,0-3.9-.3-.07-.572-.125-.843-.2a4.644,4.644,0,0,1-3.413-4.427q-.028-10.326,0-20.652a4.618,4.618,0,0,1,3.676-4.479c.173-.039.344-.084.58-.143" transform="translate(-78.816 -59.08)" fill="#19aeef"/>
    <path id="Caminho_65" data-name="Caminho 65" d="M200.263,153.922c0,1.391.005,2.723,0,4.054a2.139,2.139,0,1,1-4.262,0c-.006-1.331,0-2.662,0-4.039-.22-.059-.424-.12-.632-.168a4.612,4.612,0,0,1-3.619-4.391q-.043-9.326,0-18.653A4.608,4.608,0,0,1,195.4,126.3c.173-.039.345-.081.6-.141,0-1.249,0-2.506,0-3.762a4.663,4.663,0,0,1,.051-.928,2.124,2.124,0,0,1,4.2.395c.027,1.419.006,2.839.006,4.292.307.072.586.126.858.2a4.618,4.618,0,0,1,3.4,4.369q.038,9.293,0,18.586a4.611,4.611,0,0,1-3.689,4.469c-.173.039-.343.086-.566.142" transform="translate(-157.595 -98.455)" fill="#19aeef"/>
    <path id="Caminho_66" data-name="Caminho 66" d="M8.552,173.93a17.135,17.135,0,0,1,2.314,1.1,4.238,4.238,0,0,1,1.926,3.619q.051,6.128,0,12.257A4.615,4.615,0,0,1,9.178,195.3l-.637.148c0,1.421.013,2.838,0,4.255a2.109,2.109,0,0,1-1.405,1.991,1.946,1.946,0,0,1-2.284-.6,3.005,3.005,0,0,1-.545-1.512c-.074-1.37-.025-2.747-.025-4.014a15.913,15.913,0,0,1-2.08-.894,4.324,4.324,0,0,1-2.171-3.821q-.053-6.095,0-12.19a4.619,4.619,0,0,1,3.652-4.431c.191-.043.379-.1.6-.155,0-1.349,0-2.68,0-4.01a2.142,2.142,0,1,1,4.263-.011c.007,1.288,0,2.576.008,3.864,0,.043.019.086,0,.019" transform="translate(0 -137.851)" fill="#19aeef"/>
  </g>
</svg>
