<svg xmlns="http://www.w3.org/2000/svg" xmlns:xlink="http://www.w3.org/1999/xlink" width="24" height="16.813" viewBox="0 0 24 16.813">
  <defs>
    <clipPath id="clip-path">
      <rect id="Retângulo_73" data-name="Retângulo 73" width="24" height="16.813" fill="#9add30"/>
    </clipPath>
  </defs>
  <g id="Grupo_78" data-name="Grupo 78" clip-path="url(#clip-path)">
    <path id="Caminho_22" data-name="Caminho 22" d="M255.6,9.024a11.553,11.553,0,0,1-3.044,7.353,1.152,1.152,0,0,1-1.3.368,1.132,1.132,0,0,1-.82-1.036,1.235,1.235,0,0,1,.359-.97,9.151,9.151,0,0,0,2.139-4.121,9.4,9.4,0,0,0-2.088-8.481,1.364,1.364,0,0,1-.413-1.009,1.136,1.136,0,0,1,.8-1.053,1.147,1.147,0,0,1,1.3.343A11.669,11.669,0,0,1,254.4,3.182a12.627,12.627,0,0,1,1.2,5.842" transform="translate(-231.6 0.001)" fill="#9add30"/>
    <path id="Caminho_23" data-name="Caminho 23" d="M4.056,16.82a1.262,1.262,0,0,1-1.039-.452A11.659,11.659,0,0,1,.059,9.611,11.748,11.748,0,0,1,3.041.451,1.148,1.148,0,0,1,4.336.082a1.13,1.13,0,0,1,.819,1.036,1.267,1.267,0,0,1-.376.993,9.094,9.094,0,0,0-2.123,4.1,9.4,9.4,0,0,0,2.09,8.48,1.349,1.349,0,0,1,.4,1.093A1.152,1.152,0,0,1,4.056,16.82" transform="translate(0 -0.014)" fill="#9add30"/>
    <path id="Caminho_24" data-name="Caminho 24" d="M63.736,44.274a7.047,7.047,0,0,1,2.046-4.729,1.2,1.2,0,0,1,1.733-.108,1.186,1.186,0,0,1,.01,1.753,4.835,4.835,0,0,0-.632,5.979,6.779,6.779,0,0,0,.627.792A1.2,1.2,0,1,1,65.765,49.6a7.419,7.419,0,0,1-2.029-5.331" transform="translate(-58.943 -36.176)" fill="#9add30"/>
    <path id="Caminho_25" data-name="Caminho 25" d="M204.287,44.759a7.363,7.363,0,0,1-2,5.146,1.2,1.2,0,1,1-1.768-1.622,4.767,4.767,0,0,0,1.338-3.692,4.652,4.652,0,0,0-1.3-2.974,1.27,1.27,0,0,1-.412-1.005,1.2,1.2,0,0,1,2.046-.761,7.039,7.039,0,0,1,1.971,3.806c.074.423.1.855.126,1.1" transform="translate(-185.075 -36.516)" fill="#9add30"/>
    <path id="Caminho_26" data-name="Caminho 26" d="M137.386,87.848a1.8,1.8,0,1,1-1.794,1.814,1.8,1.8,0,0,1,1.794-1.814" transform="translate(-125.396 -81.242)" fill="#9add30"/>
  </g>
</svg>
