<svg xmlns="http://www.w3.org/2000/svg" xmlns:xlink="http://www.w3.org/1999/xlink" width="58.464" height="64" viewBox="0 0 58.464 64">
  <defs>
    <clipPath id="clip-path">
      <rect id="Retângulo_94" data-name="Retângulo 94" width="58.464" height="64" fill="#472e92"/>
    </clipPath>
  </defs>
  <g id="Grupo_140" data-name="Grupo 140" transform="translate(0 0)">
    <g id="Grupo_139" data-name="Grupo 139" transform="translate(0 0)" clip-path="url(#clip-path)">
      <path id="Caminho_48" data-name="Caminho 48" d="M28.715,55.483A24.617,24.617,0,0,0,52.682,25.208c-.354-1.489.2-2.6,1.446-2.9,1.216-.292,2.256.471,2.588,1.966,1.92,8.724.391,16.812-5.075,23.877-6.915,8.943-16.2,12.663-27.392,11.085a28.764,28.764,0,0,1-6.318-55.06,28.24,28.24,0,0,1,9.734-2.046A2.127,2.127,0,0,1,30.06,4.159,2.153,2.153,0,0,1,27.8,6.279,24.374,24.374,0,0,0,4.663,25.716,24.67,24.67,0,0,0,28.715,55.483" transform="translate(0 4.414)" fill="#472e92"/>
      <path id="Caminho_49" data-name="Caminho 49" d="M23.335,24.859A12.43,12.43,0,1,1,35.8,12.507,12.453,12.453,0,0,1,23.335,24.859m8.306-12.38a8.288,8.288,0,0,0-16.575-.129A8.181,8.181,0,0,0,23.3,20.637a8.141,8.141,0,0,0,8.346-8.158" transform="translate(22.662 -0.001)" fill="#472e92"/>
      <path id="Caminho_50" data-name="Caminho 50" d="M17.207,33.757c0,.609.012,1.206,0,1.8a2.075,2.075,0,1,1-4.148.071c-.022-.4,0-.809,0-1.256a14.1,14.1,0,0,1-1.453-.117,4.9,4.9,0,0,1-4-4.416,2.123,2.123,0,0,1,1.813-2.434,2.052,2.052,0,0,1,2.311,1.936c.068.545.3.9.859.822,1.582-.231,3.16-.5,4.73-.794a3.066,3.066,0,0,0,.908-.431c1.36-.794,2.24-2.594-.065-3.659a25.521,25.521,0,0,0-3.939-1.32,18.159,18.159,0,0,1-4.727-1.853,5.9,5.9,0,0,1-.258-10.048,16.406,16.406,0,0,1,3.219-1.545c.462-.185.655-.366.606-.856a7.71,7.71,0,0,1,0-1.222,2.076,2.076,0,1,1,4.151.046c.012.379,0,.76,0,1.166.539.055,1.037.077,1.52.166a4.906,4.906,0,0,1,3.933,4.619,2.094,2.094,0,0,1-1.9,2.219,2.069,2.069,0,0,1-2.228-1.8c-.151-.9-.283-1.077-1.157-.954a37.018,37.018,0,0,0-4.5.843A3.7,3.7,0,0,0,11.194,15.9a1.564,1.564,0,0,0,.375,2.573,17.905,17.905,0,0,0,3.1,1.292c1.671.582,3.413.979,5.035,1.665a6.148,6.148,0,0,1,3.825,4.038,5.994,5.994,0,0,1-2.45,6.509,21.329,21.329,0,0,1-2.939,1.477,7.847,7.847,0,0,1-.929.3" transform="translate(13.601 13.246)" fill="#472e92"/>
      <path id="Caminho_51" data-name="Caminho 51" d="M17.494,5.781c-.209-.246-.375-.446-.545-.643A2.1,2.1,0,0,0,14.01,4.72a2.067,2.067,0,0,0-.286,3c.56.745,1.139,1.483,1.729,2.2a2.033,2.033,0,0,0,3.044.366q2.29-1.8,4.536-3.656A2.067,2.067,0,0,0,23.491,3.6a2.115,2.115,0,0,0-3.074-.169c-.957.76-1.9,1.533-2.924,2.351" transform="translate(27.445 5.927)" fill="#472e92"/>
      <path id="Caminho_52" data-name="Caminho 52" d="M17.494,5.781c1.019-.819,1.966-1.591,2.924-2.351a2.115,2.115,0,0,1,3.074.169,2.067,2.067,0,0,1-.459,3.037Q20.785,8.488,18.5,10.293a2.033,2.033,0,0,1-3.044-.366c-.591-.72-1.169-1.459-1.729-2.2a2.067,2.067,0,0,1,.286-3,2.1,2.1,0,0,1,2.939.419c.169.2.335.4.545.643" transform="translate(27.445 5.927)" fill="#472e92"/>
    </g>
  </g>
</svg>
