<svg id="Grupo_130" data-name="Grupo 130" xmlns="http://www.w3.org/2000/svg" xmlns:xlink="http://www.w3.org/1999/xlink" width="64" height="64.002" viewBox="0 0 64 64.002">
  <defs>
    <clipPath id="clip-path">
      <rect id="Retângulo_89" data-name="Retângulo 89" width="64" height="64.002" fill="#9add30"/>
    </clipPath>
  </defs>
  <g id="Grupo_129" data-name="Grupo 129" clip-path="url(#clip-path)">
    <path id="Caminho_32" data-name="Caminho 32" d="M64,31.427v1.92c-.019.146-.047.292-.055.439a29.454,29.454,0,0,1-1.425,7.8A31.815,31.815,0,0,1,44.46,61.453a30,30,0,0,1-9.843,2.434c-.466.037-.932.077-1.4.115h-2.5c-.136-.018-.272-.046-.408-.053a30.62,30.62,0,0,1-10.424-2.325A31.749,31.749,0,0,1,4.869,48.946,31.287,31.287,0,0,1,.121,34.655a31.194,31.194,0,0,1,.687-9.878A31.647,31.647,0,0,1,9.855,8.936,31.943,31.943,0,0,1,37.348.453a30.917,30.917,0,0,1,9.91,3.438A31.849,31.849,0,0,1,60.747,18.028a31.115,31.115,0,0,1,3.138,11.81c.034.53.077,1.06.116,1.589M32.206,15.96c-3.918.078-7.672.12-11.423.237-2.429.076-4.856.235-7.28.4-1.4.1-2.8.237-4.195.442a2.5,2.5,0,0,0-2.379,2.394c-.112,1.027-.217,2.059-.253,3.091-.091,2.579-.181,5.158-.2,7.738-.031,4.553-.032,9.106.372,13.65.183,2.059.907,2.892,2.946,3.133,1.111.131,2.225.261,3.341.322,3.747.2,7.493.461,11.243.538,4.626.095,9.255.056,13.883.026,5.2-.034,10.4-.293,15.58-.831a8.185,8.185,0,0,0,1.1-.187,2.476,2.476,0,0,0,2.139-2.473c.158-1.944.344-3.891.369-5.839q.082-6.6,0-13.212c-.024-1.948-.2-3.9-.374-5.839A2.473,2.473,0,0,0,54.9,17.08a6.158,6.158,0,0,0-1.007-.17c-3.381-.243-6.759-.549-10.144-.691-3.9-.164-7.8-.181-11.54-.258" transform="translate(0 0)" fill="#9add30"/>
    <path id="Caminho_34" data-name="Caminho 34" d="M310.676,298.656a12.873,12.873,0,1,1-12.919,12.87,12.89,12.89,0,0,1,12.919-12.87" transform="translate(-278.685 -279.526)" fill="#9add30"/>
  </g>
</svg>
