<svg xmlns="http://www.w3.org/2000/svg" width="896" height="220" viewBox="0 0 896 220">
  <g id="Grupo_67" data-name="Grupo 67" transform="translate(-208 -1461)">
    <text id="Aquilo_que_você_precisa_para_simplificar_a_vida_o_ValorOne_tem_" data-name="Aquilo que você precisa para simplificar a vida, o ValorOne tem! " transform="translate(208 1558)" fill="#472e92" font-size="48.83" font-family="Helvetica-Bold, Helvetica" font-weight="700"><tspan x="0" y="38">Aquilo que você precisa para </tspan><tspan x="0" y="111.25">simplificar a vida, o ValorOne tem! </tspan></text>
    <g id="Grupo_66" data-name="Grupo 66">
      <text id="Vantagens_da_Ferramenta" data-name="Vantagens da Ferramenta" transform="translate(232 1502)" fill="#472e92" font-size="25" font-family="Helvetica"><tspan x="0" y="0">Vantagens da Ferramenta</tspan></text>
      <g id="Caminho_19" data-name="Caminho 19" transform="translate(208 1461)" fill="none">
        <path d="M8.386,0H339.614A8.2,8.2,0,0,1,348,8V57a8.2,8.2,0,0,1-8.386,8H8.386A8.2,8.2,0,0,1,0,57V8A8.2,8.2,0,0,1,8.386,0Z" stroke="none"/>
        <path d="M 8.38555908203125 2 C 4.864532470703125 2 2 4.69158935546875 2 8 L 2 57 C 2 60.30841064453125 4.864532470703125 63 8.38555908203125 63 L 339.6144409179688 63 C 343.1354675292969 63 346 60.30841064453125 346 57 L 346 8 C 346 4.69158935546875 343.1354675292969 2 339.6144409179688 2 L 8.38555908203125 2 M 8.38555908203125 0 L 339.6144409179688 0 C 344.2456359863281 0 348 3.58172607421875 348 8 L 348 57 C 348 61.41827392578125 344.2456359863281 65 339.6144409179688 65 L 8.38555908203125 65 C 3.754302978515625 65 0 61.41827392578125 0 57 L 0 8 C 0 3.58172607421875 3.754302978515625 0 8.38555908203125 0 Z" stroke="none" fill="#9add30"/>
      </g>
    </g>
  </g>
</svg>
