<svg xmlns="http://www.w3.org/2000/svg" xmlns:xlink="http://www.w3.org/1999/xlink" width="64" height="54.912" viewBox="0 0 64 54.912">
  <defs>
    <clipPath id="clip-path">
      <rect id="Retângulo_97" data-name="Retângulo 97" width="64" height="54.912" transform="translate(0 0)" fill="#19aeef"/>
    </clipPath>
  </defs>
  <g id="Grupo_146" data-name="Grupo 146" transform="translate(0 0.003)">
    <g id="Grupo_145" data-name="Grupo 145" transform="translate(0 -0.003)" clip-path="url(#clip-path)">
      <path id="Caminho_59" data-name="Caminho 59" d="M678.466,803.656a1.255,1.255,0,0,0,.305.313,9.128,9.128,0,0,1,2.669,4.251,9.211,9.211,0,0,1-7.28,11.639,9.232,9.232,0,0,1-1.628.131q-8.874,0-17.749,0c-.14,0-.28-.01-.437-.016-.012-.09-.025-.157-.028-.225,0-.095,0-.19,0-.284q0-15.01,0-30.02a1.38,1.38,0,0,1,.035-.5,1.321,1.321,0,0,1,.173-.033c.106-.006.213,0,.32,0q8.145,0,16.29,0a9.186,9.186,0,0,1,7.816,4.361,9.182,9.182,0,0,1-.315,10.125c-.059.086-.114.175-.171.265m-16.521,10.607c.117.009.22.025.322.025q3.984,0,7.968,0a3.725,3.725,0,0,0,.882-.089,3.5,3.5,0,0,0,.252-6.741,4.172,4.172,0,0,0-1.3-.174q-3.859,0-7.719,0a1.852,1.852,0,0,0-.213,0,2.029,2.029,0,0,0-.219.051c0,2.253,0,4.492,0,6.732a1.694,1.694,0,0,0,.024.192m-.016-19.631c0,.177-.01.317-.01.458q0,3.006,0,6.011c0,.095-.005.19,0,.284a1.484,1.484,0,0,0,.056.218h.4q3.557,0,7.114,0a4.745,4.745,0,0,0,.672-.053,3.492,3.492,0,0,0-.482-6.942q-3.735-.005-7.47,0c-.081,0-.162.015-.284.027" transform="translate(-642.664 -774.861)" fill="#19aeef"/>
      <path id="Caminho_60" data-name="Caminho 60" d="M3.812,243.682c-.056.386-.087,40.981-.035,42.742,0,.081.017.161.028.26a1.941,1.941,0,0,0,.213.034c.118.006.237,0,.356,0q3.432,0,6.865,0a.918.918,0,0,1,.434.047c.008.066.021.134.023.2.034,1.166.015,3.166-.035,3.5-.059.009-.126.023-.193.027-.095.005-.19,0-.284,0H.511c-.153,0-.305,0-.47-.005A2.236,2.236,0,0,1,0,290.274c-.006-.106,0-.213,0-.32q0-24.774,0-49.548a1.828,1.828,0,0,1,.029-.514c.069-.009.135-.021.2-.025.083,0,.166,0,.249,0H11.226c.14,0,.28,0,.433.008a1.147,1.147,0,0,1,.034.188q0,1.69,0,3.379a1.313,1.313,0,0,1-.021.157,1.476,1.476,0,0,1-.2.04c-.118.007-.237,0-.356,0q-3.415,0-6.829,0a1.252,1.252,0,0,0-.473.04" transform="translate(0 -235.594)" fill="#19aeef"/>
      <path id="Caminho_61" data-name="Caminho 61" d="M2196.135,243.713a1.41,1.41,0,0,0-.2-.043c-.118-.007-.237,0-.355,0h-6.829a1.363,1.363,0,0,1-.472-.039,1.609,1.609,0,0,1-.028-.208q0-1.636,0-3.272a2.125,2.125,0,0,1,.025-.224,1.624,1.624,0,0,1,.209-.03c.237,0,.474,0,.711,0h10.684a1.6,1.6,0,0,1,.045.214c.007.106,0,.213,0,.32v50.057a1.85,1.85,0,0,1-.215.046c-.083.008-.166,0-.249,0h-10.741c-.14,0-.28-.007-.436-.011a1.134,1.134,0,0,1-.035-.186q0-1.689,0-3.379a1.319,1.319,0,0,1,.021-.157,1.176,1.176,0,0,1,.2-.046c.118-.008.237,0,.355,0q3.433,0,6.865,0a.714.714,0,0,0,.454-.062.871.871,0,0,0,.021-.137q0-21.341,0-42.681a1,1,0,0,0-.024-.151" transform="translate(-2149.287 -235.62)" fill="#19aeef"/>
      <path id="Caminho_62" data-name="Caminho 62" d="M3077.566,6.036c.1.075.163.125.23.171a2.574,2.574,0,0,1,1.144,2.209,3.494,3.494,0,0,1-1.607,3.074,4.259,4.259,0,0,1-1.211.585,6.2,6.2,0,0,1-2.249.236,5.463,5.463,0,0,1-1.526-.311,4.546,4.546,0,0,1-1.59-.985,4,4,0,0,1-1.168-2.267.368.368,0,0,1,.011-.1c.263-.048,2.767-.063,3.353-.02.043.074.092.154.137.237a1.347,1.347,0,0,0,1.275.748,1.631,1.631,0,0,0,.882-.223,1.074,1.074,0,0,0,.538-1.048,1.029,1.029,0,0,0-.68-.918,1.433,1.433,0,0,0-.551-.127c-.332-.007-.664-.009-1-.015a.591.591,0,0,1-.345-.049,18.237,18.237,0,0,1-.007-2.29,1.663,1.663,0,0,1,.229-.034c.285,0,.569,0,.854,0a1.776,1.776,0,0,0,.693-.135.981.981,0,0,0,.687-.907,1.066,1.066,0,0,0-.6-1.046,1.454,1.454,0,0,0-2.039.686c-.034.074-.068.148-.11.241-1.057,0-2.11,0-3.144,0a.239.239,0,0,1-.039-.253,4.219,4.219,0,0,1,3.692-3.436,6.17,6.17,0,0,1,2.5.156,4.173,4.173,0,0,1,1.851,1.083,3.286,3.286,0,0,1,.97,2.045,3.5,3.5,0,0,1-.038,1.026,2.4,2.4,0,0,1-.831,1.412c-.09.076-.181.15-.31.256" transform="translate(-3014.94 0.003)" fill="#19aeef"/>
    </g>
  </g>
</svg>
