<svg id="Grupo_144" data-name="Grupo 144" xmlns="http://www.w3.org/2000/svg" xmlns:xlink="http://www.w3.org/1999/xlink" width="63.969" height="64" viewBox="0 0 63.969 64">
  <defs>
    <clipPath id="clip-path">
      <rect id="Retângulo_96" data-name="Retângulo 96" width="63.969" height="64" fill="#19aeef"/>
    </clipPath>
  </defs>
  <g id="Grupo_143" data-name="Grupo 143" clip-path="url(#clip-path)">
    <path id="Caminho_55" data-name="Caminho 55" d="M112.8,217.063q0-5.805,0-11.61c0-1.647.74-2.383,2.39-2.383q9.587,0,19.174,0c1.654,0,2.4.735,2.4,2.375q0,11.61,0,23.22a2.152,2.152,0,0,1-2.424,2.394H115.236a2.161,2.161,0,0,1-2.431-2.453q0-5.772,0-11.544" transform="translate(-92.801 -167.061)" fill="#19aeef"/>
    <path id="Caminho_56" data-name="Caminho 56" d="M112.151,32.024a8.262,8.262,0,0,1-1.295-.435q-3.634-1.916-7.238-3.888a1.027,1.027,0,0,0-1.1-.015c-2.487,1.3-5,2.551-7.481,3.85a1.736,1.736,0,0,1-2.036,0,2.079,2.079,0,0,1-.933-2.177c.279-1.566.548-3.133.823-4.7.233-1.327.49-2.65.684-3.983a1.032,1.032,0,0,0-.291-.776c-2.008-1.867-4.027-3.724-6.075-5.546a2.186,2.186,0,0,1-.709-2.387,1.926,1.926,0,0,1,1.784-1.36c2.773-.427,5.544-.868,8.322-1.26a1.123,1.123,0,0,0,.971-.731c1.161-2.431,2.364-4.842,3.523-7.274a2.106,2.106,0,0,1,3.93.016c1.167,2.453,2.382,4.882,3.554,7.332a1.016,1.016,0,0,0,.884.645c2.82.408,5.639.834,8.451,1.294a1.94,1.94,0,0,1,1.717,2.6,2.447,2.447,0,0,1-.65,1.042c-1.887,1.866-3.78,3.726-5.719,5.538a1.435,1.435,0,0,0-.478,1.5c.5,2.737.972,5.481,1.435,8.225a2,2,0,0,1-2.076,2.5" transform="translate(-71.079 0)" fill="#19aeef"/>
    <path id="Caminho_57" data-name="Caminho 57" d="M16.174,274.686H15.7q-6.664,0-13.329,0A2.163,2.163,0,0,1,0,272.292q0-6.93,0-13.86A2.055,2.055,0,0,1,2.313,256.1q6.532-.006,13.064,0H16v.814c0,4.554-.013,9.107.008,13.661.006,1.338.107,2.675.169,4.113" transform="translate(0 -210.687)" fill="#19aeef"/>
    <path id="Caminho_58" data-name="Caminho 58" d="M269.512,270.708h1.307q6.071,0,12.142,0c1.867,0,2.548.69,2.548,2.572q0,5.507,0,11.014a2.17,2.17,0,0,1-2.419,2.409q-6.6,0-13.2,0h-.593c.456-5.065.114-10.1.22-15.125.005-.26,0-.52,0-.872" transform="translate(-221.541 -222.706)" fill="#19aeef"/>
  </g>
</svg>
