<svg xmlns="http://www.w3.org/2000/svg" xmlns:xlink="http://www.w3.org/1999/xlink" width="57.366" height="64" viewBox="0 0 57.366 64">
  <defs>
    <clipPath id="clip-path">
      <rect id="Retângulo_93" data-name="Retângulo 93" width="57.366" height="64" fill="#472e92"/>
    </clipPath>
  </defs>
  <g id="Grupo_138" data-name="Grupo 138" transform="translate(0 0)">
    <g id="Grupo_137" data-name="Grupo 137" transform="translate(0 0.001)" clip-path="url(#clip-path)">
      <path id="Caminho_42" data-name="Caminho 42" d="M0,31.991C0,24.3-.009,16.6.01,8.908A8.735,8.735,0,0,1,7.3.131,7.939,7.939,0,0,1,8.734.014C17.892.008,27.05-.016,36.208.02a8.624,8.624,0,0,1,8.641,7.347,23.789,23.789,0,0,1,.089,4.516,1.972,1.972,0,0,1-2.01,1.786A2.023,2.023,0,0,1,40.9,11.819c-.058-.907-.025-1.82-.034-2.73a4.706,4.706,0,0,0-4.974-4.959c-.6,0-1.2-.012-1.8,0a2.034,2.034,0,0,0-2.2,1.832,20.176,20.176,0,0,1-.464,2.026,5.979,5.979,0,0,1-5.635,4.15c-2.133.025-4.267.018-6.4,0A6.092,6.092,0,0,1,13.3,7.082c-.092-.467-.172-.941-.289-1.4A1.777,1.777,0,0,0,11.3,4.186a19.178,19.178,0,0,0-3.44.074A4.485,4.485,0,0,0,4.212,8.035a7.842,7.842,0,0,0-.083,1.073q0,22.867,0,45.734A4.633,4.633,0,0,0,7.56,59.649a6.476,6.476,0,0,0,1.632.188q13.308.018,26.61.006a4.711,4.711,0,0,0,5.057-5.091c0-.79-.018-1.583.012-2.373a2.044,2.044,0,0,1,2.044-2.066,2.008,2.008,0,0,1,2.05,2.057c.006,2,.249,4.036-.572,5.961a8.462,8.462,0,0,1-7.753,5.592c-3.059.151-6.133.043-9.2.046-6.161,0-12.321.015-18.482-.006A8.741,8.741,0,0,1,.127,56.646,10.665,10.665,0,0,1,.01,54.712Q0,43.35,0,31.991M16.924,4.158c.184.861.323,1.632.52,2.392a1.778,1.778,0,0,0,1.746,1.433c2.2.028,4.4.025,6.6,0A1.676,1.676,0,0,0,27.44,6.808a27.163,27.163,0,0,0,.615-2.65Z" transform="translate(-0.001 0)" fill="#472e92"/>
      <path id="Caminho_43" data-name="Caminho 43" d="M23.772,6.1c2.877,0,5.752-.006,8.629,0a5.482,5.482,0,0,1,5.73,5.681q.046,6,0,12a5.485,5.485,0,0,1-5.749,5.666c-1.22.009-2.444-.022-3.664.018a1.456,1.456,0,0,0-.867.357c-.642.575-1.214,1.227-1.838,1.82a3.277,3.277,0,0,1-4.66,0c-.606-.578-1.156-1.22-1.786-1.771a1.709,1.709,0,0,0-.99-.406c-1.22-.049-2.444-.009-3.664-.022a5.468,5.468,0,0,1-5.619-5.573q-.055-6.11,0-12.223A5.465,5.465,0,0,1,14.927,6.1c2.948-.012,5.9,0,8.844,0M23.7,28.108c.639-.652,1.263-1.245,1.841-1.884a2.683,2.683,0,0,1,2.17-.9c1.509.028,3.022.015,4.531.006,1.248-.009,1.755-.5,1.758-1.737q.009-5.782,0-11.571c0-1.306-.476-1.777-1.78-1.777q-8.517,0-17.037,0c-1.3,0-1.777.473-1.78,1.78q-.009,5.75,0,11.5c0,1.319.5,1.8,1.838,1.8,1.439.006,2.877.031,4.313-.009a2.86,2.86,0,0,1,2.352,1c.541.6,1.15,1.15,1.792,1.789" transform="translate(19.214 12.638)" fill="#472e92"/>
      <path id="Caminho_44" data-name="Caminho 44" d="M9.315,20.844c-.31,0-.624.012-.931,0a2.09,2.09,0,0,1-2.044-2.007,2.059,2.059,0,0,1,1.924-2.115,13.929,13.929,0,0,1,2.149,0,2.074,2.074,0,0,1,1.94,2.1A2.1,2.1,0,0,1,10.32,20.84c-.335.018-.67,0-1.005,0" transform="translate(13.145 34.584)" fill="#472e92"/>
      <path id="Caminho_45" data-name="Caminho 45" d="M14.874,9.461a1.331,1.331,0,1,1-1.343,1.282,1.294,1.294,0,0,1,1.343-1.282" transform="translate(28.062 19.622)" fill="#472e92"/>
      <path id="Caminho_46" data-name="Caminho 46" d="M13.217,12.126a1.333,1.333,0,1,1,1.374-1.346,1.343,1.343,0,0,1-1.374,1.346" transform="translate(24.683 19.622)" fill="#472e92"/>
      <path id="Caminho_47" data-name="Caminho 47" d="M16.511,9.461a1.333,1.333,0,1,1-.025,2.665,1.333,1.333,0,1,1,.025-2.665" transform="translate(31.421 19.622)" fill="#472e92"/>
    </g>
  </g>
</svg>
