<svg id="Grupo_81" data-name="Grupo 81" xmlns="http://www.w3.org/2000/svg" xmlns:xlink="http://www.w3.org/1999/xlink" width="24" height="19.572" viewBox="0 0 24 19.572">
  <defs>
    <clipPath id="clip-path">
      <rect id="Retângulo_74" data-name="Retângulo 74" width="24" height="19.572" fill="#9add30" stroke="#9add30" stroke-width="0.25"/>
    </clipPath>
  </defs>
  <g id="Grupo_80" data-name="Grupo 80" clip-path="url(#clip-path)">
    <g id="Caminho_27" data-name="Caminho 27" transform="translate(0 0)" fill="#9add30">
      <path d="M 11.63504028320312 19.69650840759277 C 8.860810279846191 19.69650840759277 6.308640003204346 19.69339942932129 3.832689762115479 19.68700790405273 C 2.777949810028076 19.68429946899414 1.792869806289673 19.28229904174805 1.058919787406921 18.5550479888916 C 0.3283898234367371 17.8311882019043 -0.08974018692970276 16.84962844848633 -0.1184501871466637 15.79117870330811 C -0.1264801919460297 15.49441909790039 -0.1269501894712448 15.19604873657227 -0.1198701858520508 14.90432834625244 C -0.09902018308639526 14.05312824249268 0.4649398028850555 13.46794891357422 1.316889762878418 13.413498878479 C 1.359193921089172 13.41080760955811 1.401437640190125 13.40708637237549 1.449199795722961 13.4027681350708 L 1.449199795722961 13.21282863616943 L 1.448869824409485 10.23900890350342 C 1.448439836502075 7.709308624267578 1.447999835014343 5.093488693237305 1.450479865074158 2.520648717880249 C 1.451679825782776 1.211378693580627 2.255269765853882 0.1951986402273178 3.497729778289795 -0.06819136440753937 C 3.724069833755493 -0.1161213666200638 3.956299781799316 -0.1228613629937172 4.173549652099609 -0.1230013594031334 C 7.396070003509521 -0.1247013658285141 10.61900997161865 -0.1253713667392731 13.84150981903076 -0.1253713667392731 C 15.83613967895508 -0.1253713667392731 17.83032989501953 -0.1251213699579239 19.82494926452637 -0.1246813610196114 C 20.5219898223877 -0.1245413646101952 21.14204025268555 0.0781286358833313 21.61808013916016 0.461418628692627 C 22.09605979919434 0.8462786078453064 22.40717887878418 1.395398616790771 22.51782035827637 2.049428701400757 C 22.54838943481445 2.230278730392456 22.54812049865723 2.41403865814209 22.54784965515137 2.591748714447021 L 22.54780006408691 2.646868705749512 C 22.54902076721191 5.534248828887939 22.54895973205566 8.421588897705078 22.54890060424805 11.30895900726318 L 22.54887008666992 13.18802833557129 L 22.54887008666992 13.40438842773438 L 22.55324935913086 13.40467834472656 C 22.62740898132324 13.40949821472168 22.69336891174316 13.41378879547119 22.75922966003418 13.4192590713501 C 23.51594924926758 13.48181819915771 24.08362007141113 14.06401824951172 24.10898017883301 14.80360889434814 L 24.11026954650879 14.84138870239258 C 24.13399887084961 15.53177833557129 24.15854072570801 16.24565887451172 23.93091011047363 16.94015884399414 C 23.39324951171875 18.58059883117676 21.8794002532959 19.68487930297852 20.16388893127441 19.68801879882812 C 17.01741027832031 19.69372940063477 14.22760009765625 19.69650840759277 11.63504028320312 19.69650840759277 Z M 1.556505441665649 15.11138820648193 C 1.561252951622009 15.20614719390869 1.564396500587463 15.29970073699951 1.567469835281372 15.39113903045654 C 1.577079772949219 15.67707824707031 1.586159825325012 15.94715881347656 1.640839815139771 16.20524787902832 C 1.871569871902466 17.2941780090332 2.786609888076782 17.99795913696289 3.9720299243927 17.99820899963379 C 6.078499794006348 17.99873924255371 8.185480117797852 17.99899864196777 10.29195022583008 17.99899864196777 C 13.53705978393555 17.99899864196777 16.78166007995605 17.99838829040527 20.02676963806152 17.9972095489502 C 20.21065902709961 17.9972095489502 20.36745071411133 17.98539924621582 20.50616073608398 17.96109771728516 C 21.13171005249023 17.85170936584473 21.66569900512695 17.51889801025391 22.00980949401855 17.02395820617676 C 22.37066650390625 16.50494384765625 22.50668144226074 15.82919502258301 22.39679527282715 15.11138820648193 L 1.556505441665649 15.11138820648193 Z M 3.148619890213013 13.39375877380371 L 20.84946060180664 13.39375877380371 L 20.84946060180664 13.25503826141357 L 20.84954071044922 10.40431880950928 C 20.84963989257812 7.799978733062744 20.84975051879883 5.195648670196533 20.84906005859375 2.59130859375 C 20.84886932373047 1.8932785987854 20.51762962341309 1.568138599395752 19.8066291809082 1.56808865070343 L 12.38739967346191 1.567888617515564 C 9.653189659118652 1.567888617515564 6.919329643249512 1.567978620529175 4.185129642486572 1.568148612976074 C 3.47832989692688 1.568148612976074 3.1490797996521 1.895098686218262 3.148959875106812 2.597078561782837 C 3.148459911346436 5.263378620147705 3.14851975440979 7.929668426513672 3.148579835891724 10.59596824645996 L 3.148619890213013 13.23560905456543 L 3.148619890213013 13.39375877380371 Z" stroke="none"/>
      <path d="M 11.63504123687744 19.57150459289551 C 14.47776317596436 19.57150459289551 17.32094573974609 19.56817817687988 20.16366004943848 19.56301879882812 C 21.85031890869141 19.55992889404297 23.29435920715332 18.48095893859863 23.81212997436523 16.9012279510498 C 24.03688049316406 16.21549797058105 24.00811004638672 15.51034832000732 23.98405075073242 14.80788898468018 C 23.96065902709961 14.12565898895264 23.43012046813965 13.60014820098877 22.7488899230957 13.5438289642334 C 22.65010070800781 13.53562831878662 22.55109977722168 13.53011894226074 22.42387008666992 13.52137851715088 L 22.42387008666992 13.18802833557129 C 22.42387008666992 9.674308776855469 22.42428016662598 6.160648822784424 22.42280006408691 2.646918535232544 C 22.4227294921875 2.454508543014526 22.42642974853516 2.258728742599487 22.39456939697266 2.070278644561768 C 22.17956924438477 0.7992986440658569 21.18642997741699 0.0005886370781809092 19.82492065429688 0.0003186370886396617 C 14.60786437988281 -0.0008213632390834391 9.390748977661133 -0.0007513624732382596 4.173629760742188 0.001998637104406953 C 3.956679821014404 0.002138637006282806 3.734689712524414 0.009398637339472771 3.523649930953979 0.05408863723278046 C 2.344279766082764 0.3041086494922638 1.576619863510132 1.274928689002991 1.575479865074158 2.520768642425537 C 1.572049856185913 6.0848388671875 1.574199795722961 9.648828506469727 1.574199795722961 13.21282863616943 L 1.574199795722961 13.51714897155762 C 1.472319841384888 13.52581882476807 1.398659825325012 13.53354835510254 1.324859857559204 13.53824901580811 C 0.5455098152160645 13.58805847167969 0.02423981577157974 14.12551879882812 0.005089815240353346 14.90735816955566 C -0.002030184958130121 15.20065879821777 -0.00143018492963165 15.49448871612549 0.00649981526657939 15.78778839111328 C 0.06389981508255005 17.90350914001465 1.714669823646545 19.55656814575195 3.833009719848633 19.56200790405273 C 6.433813095092773 19.56872177124023 9.034196853637695 19.57150459289551 11.63504123687744 19.57150459289551 M 1.423929810523987 14.98638820648193 L 22.50243949890137 14.98638820648193 C 22.80077934265137 16.60214805603027 21.90241050720215 17.84382820129395 20.52772903442383 18.084228515625 C 20.36347007751465 18.11299896240234 20.19389915466309 18.1222095489502 20.02681922912598 18.1222095489502 C 14.67520904541016 18.12414741516113 9.3236083984375 18.12455749511719 3.971999883651733 18.12320899963379 C 2.733949899673462 18.12294769287109 1.76419985294342 17.3905086517334 1.518559813499451 16.23115921020508 C 1.435019850730896 15.83691883087158 1.453829765319824 15.4208984375 1.423929810523987 14.98638820648193 M 12.38739967346191 1.442893147468567 C 14.86036205291748 1.442893147468567 17.33367919921875 1.442960381507874 19.806640625 1.44308865070343 C 20.58699989318848 1.443148612976074 20.97385025024414 1.822138667106628 20.97406005859375 2.591278553009033 C 20.97500038146973 6.145858764648438 20.97446060180664 9.700448989868164 20.97446060180664 13.25503826141357 L 20.97446060180664 13.51875877380371 L 3.023619890213013 13.51875877380371 L 3.023619890213013 13.23560905456543 C 3.023619890213013 9.689428329467773 3.023289918899536 6.143238544464111 3.023959875106812 2.597058534622192 C 3.024089813232422 1.823888659477234 3.407989740371704 1.443148612976074 4.18511962890625 1.443148612976074 C 6.919329166412354 1.442975401878357 9.65318775177002 1.442893147468567 12.38739967346191 1.442893147468567 M 11.63504028320312 19.82150840759277 C 8.86259937286377 19.82150840759277 6.310329914093018 19.81839942932129 3.832369804382324 19.81200790405273 C 2.744569778442383 19.80921936035156 1.728359818458557 19.39434814453125 0.9709398150444031 18.64383888244629 C 0.217449814081192 17.8972282409668 -0.2138201892375946 16.88533782958984 -0.2434101849794388 15.79456901550293 C -0.2514901757240295 15.49566841125488 -0.2519701719284058 15.19513893127441 -0.2448401898145676 14.90128898620605 C -0.222630187869072 13.99473857879639 0.4017698168754578 13.34673881530762 1.308909773826599 13.28875827789307 C 1.314004302024841 13.28843402862549 1.319097995758057 13.28809356689453 1.324199795722961 13.28773975372314 L 1.323869824409485 10.23902893066406 C 1.323439836502075 7.709298610687256 1.322999835014343 5.093438625335693 1.325479865074158 2.520528554916382 C 1.326729774475098 1.149798631668091 2.169219732284546 0.08566863834857941 3.471799850463867 -0.1904713660478592 C 3.709399700164795 -0.2407913655042648 3.949449777603149 -0.2478613555431366 4.173470020294189 -0.248001366853714 C 9.390701293945312 -0.25075364112854 14.60788345336914 -0.250832200050354 19.82497978210449 -0.249681368470192 C 21.30162048339844 -0.2493913620710373 22.4069995880127 0.644878625869751 22.64106941223145 2.028578519821167 C 22.67341041564941 2.219888687133789 22.67312049865723 2.409018754959106 22.67284965515137 2.591938734054565 L 22.67280006408691 2.646828651428223 C 22.67402076721191 5.534218788146973 22.67395973205566 8.421578407287598 22.67390060424805 11.30895900726318 L 22.67387008666992 13.28743743896484 C 22.70637512207031 13.28970909118652 22.73798179626465 13.29206466674805 22.76956939697266 13.29468822479248 C 23.5904598236084 13.362548828125 24.20633888244629 13.99534893035889 24.23390007019043 14.79931831359863 L 24.23519897460938 14.83709907531738 C 24.25930023193359 15.53836822509766 24.28421974182129 16.26352882385254 24.0496997833252 16.97908782958984 C 23.49518966674805 18.67090797424316 21.93368911743164 19.80977821350098 20.16411972045898 19.81301879882812 C 17.01664924621582 19.81872940063477 14.22676944732666 19.82150840759277 11.63504028320312 19.82150840759277 Z M 1.687089323997498 15.23638820648193 C 1.689042806625366 15.28713226318359 1.690731287002563 15.3373384475708 1.692399859428406 15.38693904876709 C 1.701819777488708 15.66723823547363 1.71071982383728 15.93198871612549 1.763129830360413 16.1793384552002 C 1.981099843978882 17.20808792114258 2.84814977645874 17.87296867370605 3.972049713134766 17.87320899963379 C 9.323635101318359 17.87455749511719 14.67516899108887 17.87415313720703 20.02672958374023 17.8722095489502 C 20.20335006713867 17.8722095489502 20.35309028625488 17.86100769042969 20.48460006713867 17.83797836303711 C 21.07706069946289 17.7343692779541 21.58226013183594 17.4199390411377 21.90717887878418 16.95260810852051 C 22.23188972473145 16.48557281494141 22.36436653137207 15.88247871398926 22.28765678405762 15.23638820648193 L 1.687089323997498 15.23638820648193 Z M 3.273619890213013 13.26875877380371 L 20.72446060180664 13.26875877380371 L 20.72454071044922 10.40431880950928 C 20.72463989257812 7.799988746643066 20.72475051879883 5.195668697357178 20.72406005859375 2.591348648071289 C 20.72389030456543 1.96177864074707 20.44951057434082 1.693138599395752 19.80661964416504 1.69308865070343 L 12.38739967346191 1.692888617515564 C 9.653200149536133 1.692888617515564 6.919339656829834 1.692978620529175 4.185139656066895 1.693148612976074 C 3.546559810638428 1.693148612976074 3.274069786071777 1.963488578796387 3.273959875106812 2.597098588943481 C 3.273459911346436 5.263388633728027 3.27351975440979 7.929678440093994 3.273579835891724 10.59596824645996 L 3.273619890213013 13.26875877380371 Z" stroke="none" fill="#9add30"/>
    </g>
    <path id="Caminho_28" data-name="Caminho 28" d="M126.783,53.781a3.387,3.387,0,0,1,1.338,1.148,1,1,0,0,1,.159.512.713.713,0,0,1-1.257.416,3.074,3.074,0,0,0-2.721-1.17,3.571,3.571,0,0,0-1.56.335,2.252,2.252,0,0,0-.926.749.715.715,0,0,1-1.012.22.726.726,0,0,1-.177-1.04,3.538,3.538,0,0,1,1.384-1.177,3.552,3.552,0,0,1-1.182-3.128,3.448,3.448,0,0,1,1.205-2.252,3.59,3.59,0,0,1,4.748,5.387m-4.528-2.673a2.131,2.131,0,1,0,2.108-2.141,2.136,2.136,0,0,0-2.108,2.141" transform="translate(-112.388 -44.323)" fill="#9add30" stroke="#9add30" stroke-width="0.25"/>
  </g>
</svg>
