<svg xmlns="http://www.w3.org/2000/svg" xmlns:xlink="http://www.w3.org/1999/xlink" width="63.977" height="64" viewBox="0 0 63.977 64">
  <defs>
    <clipPath id="clip-path">
      <rect id="Retângulo_90" data-name="Retângulo 90" width="63.977" height="64" fill="#9add30"/>
    </clipPath>
  </defs>
  <g id="Grupo_131" data-name="Grupo 131" clip-path="url(#clip-path)">
    <path id="Caminho_35" data-name="Caminho 35" d="M59.008,24.125H47.229c.12,1.787.261,3.536.35,5.291a1.909,1.909,0,0,1-2.541,2.036,1.844,1.844,0,0,1-1.285-1.715q-.185-2.439-.381-4.881c-.017-.241-.066-.479-.1-.734H20.675a59.994,59.994,0,0,0,0,15.788h5.547c.918,0,1.835-.011,2.753.006a1.93,1.93,0,1,1,0,3.854c-2.283.023-4.566.009-6.846.009h-.812c.118.554.2,1.03.318,1.5A30.4,30.4,0,0,0,26.113,56.03a18.593,18.593,0,0,0,3.014,3.106,4.532,4.532,0,0,0,3.4.984c.714-.052,1.428-.075,2.145-.112a1.918,1.918,0,1,1,.356,3.817A29.86,29.86,0,0,1,20.236,61.74C9.121,57.051,2.157,48.755.411,36.821c-1.939-13.258,3.02-23.9,14.044-31.533A29.861,29.861,0,0,1,34.246.106,31.255,31.255,0,0,1,57.757,13.13a30.936,30.936,0,0,1,6.195,18.63c0,.313,0,.628-.023.938A1.933,1.933,0,0,1,62,34.541a1.987,1.987,0,0,1-1.91-2.019c-.083-1.626-.161-3.258-.356-4.875-.143-1.187-.476-2.355-.723-3.522M21.246,20.187h21.3a.867.867,0,0,0,.026-.221c-.04-.241-.089-.482-.143-.723A32.849,32.849,0,0,0,38.155,8.337,12.369,12.369,0,0,0,35.086,5,4.8,4.8,0,0,0,28.9,5a12.337,12.337,0,0,0-2.025,1.939,24.6,24.6,0,0,0-4.288,8.42c-.5,1.566-.883,3.166-1.339,4.824m-4.477,3.958c-.184-.02-.313-.049-.442-.049-3.625,0-7.247.006-10.869-.011-.41,0-.525.172-.619.516a26.627,26.627,0,0,0-.875,9.96c.189,1.79.588,3.556.889,5.3H16.772a64.608,64.608,0,0,1,0-15.716m40.624-3.918C55.552,14.455,45.637,5.65,40.819,5.435c.456.734.941,1.46,1.371,2.214a39.557,39.557,0,0,1,4.256,12.005c.089.439.241.6.688.582.895-.032,1.79-.009,2.684-.009h7.574m-50.963,0c3.1,0,6.028,0,8.954,0,.645,0,1.46.184,1.881-.135.384-.287.341-1.141.485-1.749A36.069,36.069,0,0,1,23.076,5.5c.014-.02-.026-.075-.057-.161A28.506,28.506,0,0,0,6.43,20.228M23.1,58.537c-.175-.258-.35-.51-.522-.771a37.827,37.827,0,0,1-5.068-13.31c-.106-.522-.27-.694-.806-.688-3.2.023-6.4.011-9.593.014-.184,0-.37.032-.651.057a27.792,27.792,0,0,0,16.64,14.7" transform="translate(-0.001 0.001)" fill="#9add30"/>
    <path id="Caminho_36" data-name="Caminho 36" d="M40.795,21.307c-.109,6.246-2.088,11.417-6.55,15.521A19.233,19.233,0,0,1,27.863,40.7a3.452,3.452,0,0,1-2.555-.023,19.41,19.41,0,0,1-12.49-14.939,21.569,21.569,0,0,1-.275-6.611,3.32,3.32,0,0,1,2.822-2.974,44.023,44.023,0,0,0,5.44-1.05,13.012,13.012,0,0,0,3.5-1.9,3.417,3.417,0,0,1,4.537.009,14.3,14.3,0,0,0,7.958,2.845,7.5,7.5,0,0,1,1.394.169,3.1,3.1,0,0,1,2.395,2.607c.143.9.152,1.827.2,2.475" transform="translate(23.182 23.06)" fill="#9add30"/>
  </g>
</svg>
